Coordinates
version=1
nRows=22
nColumns=24
inDegrees=yes

Units are S.I. units (second, meters, Newtons, ...)
Angles are in degrees.

endheader
time	pelvis_tilt	pelvis_list	pelvis_rotation	pelvis_tx	pelvis_ty	pelvis_tz	hip_flexion_r	hip_adduction_r	hip_rotation_r	knee_angle_r	ankle_angle_r	subtalar_angle_r	mtp_angle_r	hip_flexion_l	hip_adduction_l	hip_rotation_l	knee_angle_l	ankle_angle_l	subtalar_angle_l	mtp_angle_l	lumbar_extension	lumbar_bending	lumbar_rotation
      0.75816667	      2.16427872	     -3.35038947	      7.14220551	     -0.50859145	      0.91403586	      0.32068467	      9.01749911	     10.96729523	     -1.52862048	    -19.84499814	      8.56478029	     -4.35421829	      2.89906251	     15.87345688	     -9.05200419	     -4.51565073	    -71.65870583	      0.75994296	     -6.56967775	      2.65894546	     -6.82896934	      5.79397011	     -0.90790837
      0.76233333	      2.20370807	     -3.15027292	      6.91008749	     -0.50323605	      0.91531112	      0.32106901	      8.27948244	     10.82720532	     -1.29766376	    -19.29476049	      8.62409818	     -4.17219955	      2.96212436	     16.32651086	     -8.78090256	     -4.78209440	    -71.07157352	      1.12104281	     -6.91650103	      2.53336194	     -6.89246011	      5.55057851	     -0.58205537
      0.76650000	      2.22930212	     -2.95420046	      6.65424693	     -0.49792251	      0.91651930	      0.32147834	      7.56815967	     10.68506392	     -1.04489357	    -18.75825973	      8.65308462	     -3.98223084	      3.02869742	     16.77782423	     -8.51634730	     -5.06516805	    -70.43018349	      1.51886158	     -7.19538690	      2.40763339	     -6.95718654	      5.31847283	     -0.29761194
      0.77066667	      2.26406347	     -2.76088791	      6.38646412	     -0.49261149	      0.91770412	      0.32190305	      6.84608129	     10.54089164	     -0.79395452	    -18.21453790	      8.67399484	     -3.78481452	      3.10082450	     17.19908354	     -8.26151873	     -5.36365814	    -69.72651223	      1.90224936	     -7.43219776	      2.27664186	     -7.03148338	      5.08862448	     -0.00918701
      0.77483333	      2.29838376	     -2.58014882	      6.10392929	     -0.48731302	      0.91883898	      0.32234644	      6.12587798	     10.40400350	     -0.53575440	    -17.66185070	      8.65903269	     -3.56448276	      3.21895250	     17.60482868	     -8.02631043	     -5.67191722	    -68.96948171	      2.28445567	     -7.61911265	      2.06740623	     -7.11206337	      4.88057911	      0.35663237
      0.77900000	      2.33021276	     -2.37335675	      5.79815830	     -0.48202487	      0.91993581	      0.32279639	      5.42348500	     10.23079094	     -0.27388548	    -17.14964385	      8.68016287	     -3.37959879	      3.26640002	     17.97958772	     -7.76539794	     -6.01208778	    -68.13544295	      2.66005373	     -7.76516468	      1.98973781	     -7.17363737	      4.64402575	      0.50924731
      0.78316667	      2.40898986	     -2.19602703	      5.50766071	     -0.47671683	      0.92104110	      0.32325794	      4.64498380	     10.09028221	     -0.02112259	    -16.57167450	      8.72038854	     -3.16831428	      3.34224259	     18.29737061	     -7.55034646	     -6.33739350	    -67.25675208	      2.98090584	     -7.87065968	      1.86809240	     -7.29300913	      4.41787991	      0.85515004
      0.78733333	      2.44404833	     -2.00725068	      5.17169678	     -0.47146331	      0.92202953	      0.32374046	      3.95086393	      9.92197101	      0.24621803	    -16.06357389	      8.70103339	     -2.94899752	      3.39400632	     18.63605975	     -7.32169095	     -6.70246429	    -66.31836898	      3.33313489	     -7.93582599	      1.78900625	     -7.36785613	      4.20234661	      1.08184128
      0.79150000	      2.53314186	     -1.84697750	      4.86422304	     -0.46617714	      0.92302740	      0.32421385	      3.16565355	      9.78574281	      0.50237211	    -15.48029656	      8.74504159	     -2.73233319	      3.47612562	     18.91173402	     -7.13432734	     -7.04206034	    -65.33942519	      3.63568970	     -7.95732922	      1.66663832	     -7.49481479	      3.99298441	      1.45947712
      0.79566667	      2.58931046	     -1.69669489	      4.52096232	     -0.46092544	      0.92390873	      0.32471117	      2.44229274	      9.64818076	      0.76807888	    -14.93887412	      8.70833004	     -2.51458808	      3.62905063	     19.20497721	     -6.96363252	     -7.41226478	    -64.31645810	      3.96476481	     -7.93630736	      1.43938070	     -7.58135326	      3.81872157	      1.87889512
      0.79983333	      2.63355185	     -1.51982200	      4.16050931	     -0.45571312	      0.92472178	      0.32521611	      1.75576888	      9.47193963	      1.04452283	    -14.45091920	      8.73346931	     -2.30026939	      3.67918277	     19.48467243	     -6.75888754	     -7.79221362	    -63.22294446	      4.23793372	     -7.89338548	      1.37027793	     -7.66665634	      3.59894345	      2.02745357
      0.80400000	      2.71151223	     -1.37224325	      3.80910094	     -0.45049106	      0.92550872	      0.32570757	      1.02008794	      9.32206941	      1.30323054	    -13.92516130	      8.75337707	     -2.06536211	      3.73515920	     19.71981022	     -6.59479699	     -8.16557440	    -62.09339670	      4.50144711	     -7.81799446	      1.29517360	     -7.78213266	      3.41794352	      2.30666708
      0.80816667	      2.80245451	     -1.25904405	      3.47593852	     -0.44527005	      0.92622192	      0.32617856	      0.25662604	      9.20488305	      1.56354684	    -13.35997946	      8.79665177	     -1.84414622	      3.83901464	     19.94279449	     -6.46587229	     -8.50763392	    -60.94356515	      4.75087514	     -7.70725695	      1.15574621	     -7.91171915	      3.27664448	      2.74892119
      0.81233333	      2.86204250	     -1.14024696	      3.11006260	     -0.44008947	      0.92682637	      0.32668099	     -0.44201468	      9.07010139	      1.83749166	    -12.85184349	      8.80521480	     -1.61781448	      3.95034858	     20.17678357	     -6.33552925	     -8.87718320	    -59.73937686	      4.98351644	     -7.57612609	      1.00799204	     -8.01036209	      3.12448872	      3.08141353
      0.81650000	      2.90441825	     -1.01406958	      2.72453670	     -0.43491934	      0.92734215	      0.32718581	     -1.09487164	      8.91553288	      2.09531462	    -12.39959136	      8.83059080	     -1.40210817	      4.00448558	     20.40561255	     -6.20266853	     -9.27419655	    -58.47990453	      5.16591023	     -7.44107273	      0.93975529	     -8.07358382	      2.96092249	      3.27672280
      0.82066667	      2.98995178	     -0.93539747	      2.37730611	     -0.42974224	      0.92782267	      0.32764799	     -1.82785515	      8.81105956	      2.35637935	    -11.86726472	      8.88549305	     -1.16294898	      4.10477345	     20.59401002	     -6.11328261	     -9.60953799	    -57.20936453	      5.35656406	     -7.27368197	      0.81472245	     -8.20169779	      2.86095920	      3.68872282
      0.82483333	      3.04285333	     -0.85148920	      2.01039319	     -0.42457791	      0.92818939	      0.32811210	     -2.49811211	      8.68828037	      2.60625397	    -11.38895183	      8.94276468	     -0.94764171	      4.19216530	     20.79746462	     -6.02489305	     -9.97746337	    -55.89202415	      5.50016212	     -7.10669481	      0.70740577	     -8.26979955	      2.74759073	      3.98885100
      0.82900000	      3.09536774	     -0.78595668	      1.64069555	     -0.41943342	      0.92847615	      0.32858364	     -3.16041437	      8.57946094	      2.86678707	    -10.92002638	      8.98833955	     -0.71609974	      4.29051054	     20.99001065	     -5.95389179	    -10.32655363	    -54.54227199	      5.62710331	     -6.92861328	      0.58859877	     -8.35725468	      2.65860262	      4.32441999
      0.83316667	      3.11649215	     -0.72026801	      1.25776157	     -0.41431244	      0.92865404	      0.32904149	     -3.76069048	      8.45980277	      3.12157161	    -10.50371346	      9.03336216	     -0.49687590	      4.35000487	     21.19903154	     -5.88485620	    -10.69496565	    -53.14844773	      5.69874247	     -6.75715303	      0.51897228	     -8.40110140	      2.56690721	      4.54431732
      0.83733333	      3.15365267	     -0.67969249	      0.89418046	     -0.40917983	      0.92876991	      0.32946776	     -4.39060048	      8.36125951	      3.37011826	    -10.05902795	      9.10202766	     -0.26341075	      4.41015204	     21.38571870	     -5.83793269	    -11.03299203	    -51.73574641	      5.75804356	     -6.58688821	      0.45124349	     -8.46571624	      2.50347152	      4.82753074
      0.84150000	      3.19619240	     -0.66619348	      0.54890016	     -0.40403778	      0.92880820	      0.32987539	     -5.03468174	      8.28826805	      3.61635668	     -9.59557949	      9.18812844	     -0.02493356	      4.52281411	     21.56226659	     -5.81452309	    -11.33796788	    -50.30858495	      5.81717443	     -6.41734219	      0.32653738	     -8.54265698	      2.47637610	      5.25890343
      0.84566667	      3.21533058	     -0.64766086	      0.19817268	     -0.39890049	      0.92875118	      0.33026304	     -5.63021399	      8.20181571	      3.84630695	     -9.17902896	      9.29796549	      0.19522820	      4.60921672	     21.74451162	     -5.78677123	    -11.66263275	    -48.83760116	      5.81496029	     -6.26065979	      0.23517313	     -8.57568200	      2.44475980	      5.52858328
